<?xml version="1.0" encoding="UTF-8" standalone="no"?>
<svg width="20px" height="16px" viewBox="0 0 20 16" version="1.1" xmlns="http://www.w3.org/2000/svg" xmlns:xlink="http://www.w3.org/1999/xlink" xmlns:sketch="http://www.bohemiancoding.com/sketch/ns">
    <!-- Generator: Sketch 3.2.2 (9983) - http://www.bohemiancoding.com/sketch -->
    <title>Slice 1</title>
    <desc>Created with Sketch.</desc>
    <defs></defs>
    <g id="Page-1" stroke="none" stroke-width="1" fill="none" fill-rule="evenodd" sketch:type="MSPage">
        <path d="M13.8292943,14 C13.4174579,15.1651924 12.3062188,16 11,16 C9.69378117,16 8.58254212,15.1651924 8.17070571,14 L1.5,14 L0.5,14 L0.5,12 L1.5,12 L8.17070571,12 C8.58254212,10.8348076 9.69378117,10 11,10 C12.3062188,10 13.4174579,10.8348076 13.8292943,12 L18.5,12 L19.5,12 L19.5,14 L18.5,14 L13.8292943,14 Z M5.82929429,4 C5.41745788,5.16519237 4.30621883,6 3,6 C1.34314575,6 0,4.65685425 0,3 C0,1.34314575 1.34314575,0 3,0 C4.30621883,0 5.41745788,0.834807627 5.82929429,2 L18.5,2 L19.5,2 L19.5,4 L18.5,4 L5.82929429,4 L5.82929429,4 Z" id="Oval-1" fill="#B3B3B3" sketch:type="MSShapeGroup"></path>
    </g>
</svg>