<?xml version="1.0" encoding="UTF-8" standalone="no"?>
<svg width="74px" height="63px" viewBox="0 0 74 63" version="1.1" xmlns="http://www.w3.org/2000/svg" xmlns:xlink="http://www.w3.org/1999/xlink" xmlns:sketch="http://www.bohemiancoding.com/sketch/ns">
    <!-- Generator: Sketch 3.2.2 (9983) - http://www.bohemiancoding.com/sketch -->
    <title>Slice 1</title>
    <desc>Created with Sketch.</desc>
    <defs></defs>
    <g id="Page-1" stroke="none" stroke-width="1" fill="none" fill-rule="evenodd" sketch:type="MSPage">
        <path d="M38.7207478,0 L38.9698739,0 C42.0977905,4.08860299 45.0912581,8.33777372 47.1673089,13.0608151 C49.3145386,17.9091777 50.3505868,23.5329649 48.5869322,28.6593838 C46.6216041,34.6082228 41.7537592,39.0179613 36.7079671,42.4995399 C32.4886409,40.040112 28.3800375,36.8600875 26.3198042,32.3289441 C24.4731075,28.4322392 24.7182792,23.8815144 26.1062675,19.8869023 C28.6726618,12.3676324 33.8924467,6.18773249 38.7207478,0 L38.7207478,0 Z" id="Shape" fill="#FFD740" sketch:type="MSShapeGroup"></path>
        <path d="M0,34.3705272 C4.30632258,33.9828149 8.65218899,33.8535774 12.9664203,34.2060432 C18.937538,34.7386581 25.2091887,36.6302245 29.2822027,41.231861 C33.6794761,46.1350515 34.9765135,52.9611387 35.0516468,59.3251041 C30.3854754,61.6161316 25.0549677,63.4058745 19.8154109,62.2388212 C15.2520534,61.279331 11.598204,58.0053156 9.03971848,54.2809272 C4.89552558,48.3751674 2.6494363,41.4629219 0.344031281,34.7151604 C0.257034865,34.7543233 0.0869964158,34.8287327 0,34.8678956 L0,34.3705272 L0,34.3705272 Z" id="Shape" fill="#FFD740" sketch:type="MSShapeGroup"></path>
        <path d="M49.9272338,37.6091314 C57.5038307,35.4551739 65.4719115,35.9603748 73.2422732,36.332422 L73.2422732,36.6261435 C72.071776,40.2761224 70.8538262,43.9300176 69.157396,47.3841822 C66.5593667,52.8630669 62.6049842,58.1657186 56.7683156,60.4998253 C50.4373491,62.9866672 43.2759624,61.7921998 37.1229431,59.3680186 C36.8065925,54.5118234 36.9370871,49.3149114 39.5232533,45.0187452 C41.7258444,41.200366 45.7395427,38.7761847 49.9272338,37.6091314 L49.9272338,37.6091314 Z" id="Shape" fill="#FFD740" sketch:type="MSShapeGroup"></path>
    </g>
</svg>