<?xml version="1.0" encoding="UTF-8" standalone="no"?>
<svg width="25px" height="23px" viewBox="0 0 25 23" version="1.1" xmlns="http://www.w3.org/2000/svg" xmlns:xlink="http://www.w3.org/1999/xlink" xmlns:sketch="http://www.bohemiancoding.com/sketch/ns">
    <!-- Generator: Sketch 3.2.2 (9983) - http://www.bohemiancoding.com/sketch -->
    <title>Slice 1</title>
    <desc>Created with Sketch.</desc>
    <defs></defs>
    <g id="Page-1" stroke="none" stroke-width="1" fill="none" fill-rule="evenodd" sketch:type="MSPage">
        <path d="M8.68076808,16.5734623 L9.37617386,17.5668992 L10.2189884,16.6950221 L24.7189884,1.6950221 L23.2810116,0.304977903 L8.78101162,15.3049779 L10.3192319,15.4265377 L6.81923192,10.4265377 L5.18076808,11.5734623 L8.68076808,16.5734623 Z" id="Path-19" fill="#B3B3B3" sketch:type="MSShapeGroup"></path>
        <path d="M4.9947834,5 L15.0052166,5 C16.6579651,5 18,6.34277516 18,7.9947834 L18,18.0052166 C18,19.6579651 16.6572248,21 15.0052166,21 L4.9947834,21 C3.34203488,21 2,19.6572248 2,18.0052166 L2,7.9947834 C2,6.34203488 3.34277516,5 4.9947834,5 Z M0,18.0052166 C0,20.7615475 2.2372184,23 4.9947834,23 L15.0052166,23 C17.7615475,23 20,20.7627816 20,18.0052166 L20,7.9947834 C20,5.23845249 17.7627816,3 15.0052166,3 L4.9947834,3 C2.23845249,3 0,5.2372184 0,7.9947834 L0,18.0052166 Z" id="Rectangle-33" fill="#B3B3B3" sketch:type="MSShapeGroup"></path>
    </g>
</svg>